<svg xmlns="http://www.w3.org/2000/svg" viewBox="0 0 48 48" fill="none">
  <!-- 筷子 -->
  <path d="M31 4 16 19M37.5 7.5 21.5 22" stroke="#8B6F4E" stroke-width="2.8" stroke-linecap="round"/>
  <!-- 蒸汽 -->
  <path d="M13.5 8.5c-1.7 1.9 1.7 3.2 0 5.1" stroke="#E8A33C" stroke-width="2.5" stroke-linecap="round"/>
  <path d="M20 12.5c-1.4 1.6 1.4 2.7 0 4.3" stroke="#E8A33C" stroke-width="2.2" stroke-linecap="round" opacity=".75"/>
  <!-- 碗 -->
  <path d="M6 22a18 18 0 0 0 36 0Z" fill="#D96A3B"/>
  <rect x="4" y="19.4" width="40" height="5.4" rx="2.7" fill="#F3B16B"/>
  <rect x="17.5" y="39" width="13" height="4.6" rx="2.3" fill="#BC5026"/>
  <!-- 碗上的小爱心 -->
  <path d="M24 34.6s-5.2-3.2-5.2-6.6c0-1.8 1.4-3 2.9-3 1 0 1.8.5 2.3 1.3.5-.8 1.3-1.3 2.3-1.3 1.5 0 2.9 1.2 2.9 3 0 3.4-5.2 6.6-5.2 6.6Z" fill="#FFF1DC"/>
</svg>
