<svg xmlns="http://www.w3.org/2000/svg" viewBox="0 0 720 1080">
  <defs>
    <linearGradient id="bg" x1="0" y1="0" x2="0" y2="1">
      <stop offset="0" stop-color="#4E2F20"/>
      <stop offset="1" stop-color="#271511"/>
    </linearGradient>
    <radialGradient id="glow" cx=".5" cy=".52" r=".55">
      <stop offset="0" stop-color="#C97E3F" stop-opacity=".4"/>
      <stop offset="1" stop-color="#C97E3F" stop-opacity="0"/>
    </radialGradient>
    <filter id="soft" x="-60%" y="-60%" width="220%" height="220%">
      <feGaussianBlur stdDeviation="18"/>
    </filter>
  </defs>
  <rect width="720" height="1080" fill="url(#bg)"/>
  <rect width="720" height="1080" fill="url(#glow)"/>

  <!-- 火星 -->
  <g fill="#E8A33C">
    <circle cx="120" cy="180" r="4" opacity=".8"/><circle cx="200" cy="120" r="3" opacity=".5"/>
    <circle cx="560" cy="150" r="4" opacity=".7"/><circle cx="640" cy="230" r="3" opacity=".5"/>
    <circle cx="80" cy="320" r="3" opacity=".4"/><circle cx="660" cy="380" r="3" opacity=".4"/>
    <circle cx="350" cy="90" r="3" opacity=".6"/>
  </g>

  <!-- 烟 -->
  <g stroke="#D9C9B4" stroke-width="13" stroke-linecap="round" fill="none" opacity=".2">
    <path d="M250 240c-30 36 30 56 0 92"/>
    <path d="M450 200c-26 32 26 50 0 82"/>
  </g>

  <!-- 盘子 -->
  <ellipse cx="360" cy="900" rx="300" ry="64" fill="#0E0805" opacity=".55" filter="url(#soft)"/>
  <circle cx="360" cy="620" r="290" fill="#F2E4CA"/>
  <circle cx="360" cy="620" r="252" fill="none" stroke="#DDC9A4" stroke-width="7"/>

  <!-- 4 串沙爹（扇形） -->
  <g>
    <g transform="rotate(-26 360 800)">
      <rect x="355" y="320" width="10" height="470" rx="5" fill="#D9B98C"/>
      <rect x="330" y="318" width="60" height="62" rx="18" fill="#9C5A2C"/>
      <rect x="328" y="388" width="64" height="66" rx="18" fill="#8A4E24"/>
      <rect x="332" y="462" width="58" height="60" rx="17" fill="#9C5A2C"/>
      <path d="M336 330l-6 40M388 396l4 44" stroke="#6F3D1C" stroke-width="7" stroke-linecap="round"/>
      <path d="M352 334l14 6M348 472l16 6" stroke="#C97E3F" stroke-width="6" stroke-linecap="round"/>
    </g>
    <g transform="rotate(-9 360 800)">
      <rect x="355" y="290" width="10" height="500" rx="5" fill="#D9B98C"/>
      <rect x="329" y="292" width="62" height="64" rx="18" fill="#8A4E24"/>
      <rect x="331" y="364" width="58" height="62" rx="17" fill="#9C5A2C"/>
      <rect x="328" y="434" width="64" height="64" rx="18" fill="#8A4E24"/>
      <path d="M334 304l-4 38M390 442l4 42" stroke="#6F3D1C" stroke-width="7" stroke-linecap="round"/>
      <path d="M350 306l15 6M346 446l16 6" stroke="#C97E3F" stroke-width="6" stroke-linecap="round"/>
    </g>
    <g transform="rotate(9 360 800)">
      <rect x="355" y="306" width="10" height="486" rx="5" fill="#D9B98C"/>
      <rect x="330" y="308" width="60" height="62" rx="18" fill="#9C5A2C"/>
      <rect x="328" y="378" width="64" height="66" rx="18" fill="#8A4E24"/>
      <rect x="332" y="452" width="58" height="60" rx="17" fill="#9C5A2C"/>
      <path d="M388 320l5 40M332 386l-4 44" stroke="#6F3D1C" stroke-width="7" stroke-linecap="round"/>
      <path d="M352 322l14 6M348 462l16 6" stroke="#C97E3F" stroke-width="6" stroke-linecap="round"/>
    </g>
    <g transform="rotate(26 360 800)">
      <rect x="355" y="336" width="10" height="454" rx="5" fill="#D9B98C"/>
      <rect x="329" y="338" width="62" height="64" rx="18" fill="#8A4E24"/>
      <rect x="331" y="410" width="58" height="62" rx="17" fill="#9C5A2C"/>
      <path d="M336 350l-6 40M388 418l4 42" stroke="#6F3D1C" stroke-width="7" stroke-linecap="round"/>
      <path d="M352 352l14 6M348 422l15 6" stroke="#C97E3F" stroke-width="6" stroke-linecap="round"/>
    </g>
  </g>

  <!-- 花生酱碗 -->
  <g>
    <circle cx="216" cy="724" r="80" fill="#5E3514"/>
    <circle cx="216" cy="716" r="66" fill="#8A5226"/>
    <path d="M172 716c16-14 34-16 52-8 16 7 30 6 40-2" stroke="#6E4019" stroke-width="9" stroke-linecap="round" fill="none"/>
    <circle cx="196" cy="736" r="7" fill="#C3402B"/>
    <circle cx="242" cy="728" r="6" fill="#C3402B"/>
    <circle cx="222" cy="694" r="5" fill="#C3402B"/>
    <g fill="#C9924F">
      <circle cx="184" cy="700" r="5"/><circle cx="250" cy="744" r="5"/><circle cx="212" cy="752" r="4"/>
    </g>
  </g>

  <!-- 马来粽 Ketupat -->
  <g>
    <rect x="468" y="652" width="76" height="76" rx="12" transform="rotate(45 506 690)" fill="#FFF9EC"/>
    <g stroke="#E2D3B6" stroke-width="5" transform="rotate(45 506 690)">
      <path d="M468 677h76M468 703h76M493 652v76M519 652v76"/>
    </g>
    <rect x="524" y="700" width="68" height="68" rx="11" transform="rotate(45 558 734)" fill="#F7EDD7"/>
    <g stroke="#DCCCAA" stroke-width="5" transform="rotate(45 558 734)">
      <path d="M524 722h68M524 746h68M546 700v68M570 700v68"/>
    </g>
  </g>

  <!-- 黄瓜 + 红葱 -->
  <g>
    <rect x="318" y="788" width="44" height="34" rx="10" transform="rotate(-10 340 805)" fill="#A9C878"/>
    <rect x="322" y="792" width="36" height="26" rx="8" transform="rotate(-10 340 805)" fill="#DCEBB4"/>
    <rect x="372" y="800" width="44" height="34" rx="10" transform="rotate(14 394 817)" fill="#A9C878"/>
    <rect x="376" y="804" width="36" height="26" rx="8" transform="rotate(14 394 817)" fill="#DCEBB4"/>
    <circle cx="448" cy="812" r="24" fill="none" stroke="#B077A8" stroke-width="7"/>
    <circle cx="448" cy="812" r="11" fill="none" stroke="#B077A8" stroke-width="5"/>
  </g>
</svg>
